<svg xmlns="http://www.w3.org/2000/svg" style="display: none;">

    <!--Замок-->
    <symbol id="icon-lock" viewBox="0 0 20 20">
        <path d="M9.99994 14.4579C10.7501 14.4579 11.3583 13.8497 11.3583 13.0995C11.3583 12.3494 10.7501 11.7412 9.99994 11.7412C9.24975 11.7412 8.6416 12.3494 8.6416 13.0995C8.6416 13.8497 9.24975 14.4579 9.99994 14.4579Z" fill="#5B5B5B"/>
        <path d="M15.2334 7.94199V6.90033C15.2334 4.65033 14.6917 1.66699 10.0001 1.66699C5.30841 1.66699 4.76675 4.65033 4.76675 6.90033V7.94199C2.43341 8.23366 1.66675 9.41699 1.66675 12.3253V13.8753C1.66675 17.292 2.70841 18.3337 6.12508 18.3337H13.8751C17.2917 18.3337 18.3334 17.292 18.3334 13.8753V12.3253C18.3334 9.41699 17.5667 8.23366 15.2334 7.94199ZM10.0001 15.617C8.60841 15.617 7.48341 14.4837 7.48341 13.1003C7.48341 11.7087 8.61675 10.5837 10.0001 10.5837C11.3834 10.5837 12.5167 11.717 12.5167 13.1003C12.5167 14.492 11.3917 15.617 10.0001 15.617ZM6.12508 7.86699C6.05841 7.86699 6.00008 7.86699 5.93341 7.86699V6.90033C5.93341 4.45866 6.62508 2.83366 10.0001 2.83366C13.3751 2.83366 14.0667 4.45866 14.0667 6.90033V7.87533C14.0001 7.87533 13.9417 7.87533 13.8751 7.87533H6.12508V7.86699Z" fill="#5B5B5B"/>
    </symbol>

    <!--Большой плюс-->
    <symbol id="icon-plus" viewBox="0 0 24 24">
        <path d="M6 12H18" stroke="#004573" stroke-width="1.5" stroke-linecap="round" stroke-linejoin="round"/>
        <path d="M12 18V6" stroke="#004573" stroke-width="1.5" stroke-linecap="round" stroke-linejoin="round"/>
    </symbol>

    <!--Стрелка назад-->
    <symbol id="icon-arrow-back" viewBox="0 0 20 20" fill="none">
        <path d="M7.97498 4.94189L2.91664 10.0002L7.97498 15.0586" stroke="#004573" stroke-width="1.5" stroke-miterlimit="10" stroke-linecap="round" stroke-linejoin="round"/>
        <path d="M17.0834 10H3.05837" stroke="#004573" stroke-width="1.5" stroke-miterlimit="10" stroke-linecap="round" stroke-linejoin="round"/>
    </symbol>

    <!--Звездочка-->
    <symbol id="icon-star" viewBox="0 0 16 16" fill="none">
        <path d="M9.15327 2.33977L10.3266 4.68643C10.4866 5.0131 10.9133 5.32643 11.2733 5.38643L13.3999 5.73977C14.7599 5.96643 15.0799 6.9531 14.0999 7.92643L12.4466 9.57977C12.1666 9.85977 12.0133 10.3998 12.0999 10.7864L12.5733 12.8331C12.9466 14.4531 12.0866 15.0798 10.6533 14.2331L8.65994 13.0531C8.29994 12.8398 7.70661 12.8398 7.33994 13.0531L5.34661 14.2331C3.91994 15.0798 3.05327 14.4464 3.42661 12.8331L3.89994 10.7864C3.98661 10.3998 3.83327 9.85977 3.55327 9.57977L1.89994 7.92643C0.926606 6.9531 1.23994 5.96643 2.59994 5.73977L4.72661 5.38643C5.07994 5.32643 5.50661 5.0131 5.66661 4.68643L6.83994 2.33977C7.47994 1.06643 8.51994 1.06643 9.15327 2.33977Z" fill="#FFCC00"/>
    </symbol>

    <!--Звездочка-->
    <symbol id="icon-approve" viewBox="0 0 12 14" fill="none">
        <path d="M9.99333 1.47833L6.32667 0.105C5.94667 -0.035 5.32667 -0.035 4.94667 0.105L1.28 1.47833C0.573333 1.745 0 2.57167 0 3.325V8.725C0 9.265 0.353333 9.97833 0.786667 10.2983L4.45333 13.0383C5.1 13.525 6.16 13.525 6.80667 13.0383L10.4733 10.2983C10.9067 9.97167 11.26 9.265 11.26 8.725V3.325C11.2667 2.57167 10.6933 1.745 9.99333 1.47833ZM7.95333 5.21167L5.08667 8.07833C4.98667 8.17833 4.86 8.225 4.73333 8.225C4.60667 8.225 4.48 8.17833 4.38 8.07833L3.31333 6.99833C3.12 6.805 3.12 6.485 3.31333 6.29167C3.50667 6.09833 3.82667 6.09833 4.02 6.29167L4.74 7.01167L7.25333 4.49833C7.44667 4.305 7.76667 4.305 7.96 4.49833C8.15333 4.69167 8.15333 5.01833 7.95333 5.21167Z" fill="#00731D"/>
    </symbol>

    <!--Инпут ИИ-->
    <symbol id="icon-ai" viewBox="0 0 30 30" fill="none">
        <path d="M12 6.62646L15.2411 15.3854L24 18.6265L15.2411 21.8676L12 30.6265L8.75891 21.8676L0 18.6265L8.75891 15.3854L12 6.62646Z" fill="#DDF1FF"/>
        <path d="M24 0L25.6205 4.37946L30 6L25.6205 7.62054L24 12L22.3795 7.62054L18 6L22.3795 4.37946L24 0Z" fill="#DDF1FF"/>
    </symbol>
</svg>
