<svg xmlns="http://www.w3.org/2000/svg" style="display: none;">

    <!--Замок-->
    <symbol id="icon-lock" viewBox="0 0 20 20">
        <path d="M9.99994 14.4579C10.7501 14.4579 11.3583 13.8497 11.3583 13.0995C11.3583 12.3494 10.7501 11.7412 9.99994 11.7412C9.24975 11.7412 8.6416 12.3494 8.6416 13.0995C8.6416 13.8497 9.24975 14.4579 9.99994 14.4579Z" fill="#5B5B5B"/>
        <path d="M15.2334 7.94199V6.90033C15.2334 4.65033 14.6917 1.66699 10.0001 1.66699C5.30841 1.66699 4.76675 4.65033 4.76675 6.90033V7.94199C2.43341 8.23366 1.66675 9.41699 1.66675 12.3253V13.8753C1.66675 17.292 2.70841 18.3337 6.12508 18.3337H13.8751C17.2917 18.3337 18.3334 17.292 18.3334 13.8753V12.3253C18.3334 9.41699 17.5667 8.23366 15.2334 7.94199ZM10.0001 15.617C8.60841 15.617 7.48341 14.4837 7.48341 13.1003C7.48341 11.7087 8.61675 10.5837 10.0001 10.5837C11.3834 10.5837 12.5167 11.717 12.5167 13.1003C12.5167 14.492 11.3917 15.617 10.0001 15.617ZM6.12508 7.86699C6.05841 7.86699 6.00008 7.86699 5.93341 7.86699V6.90033C5.93341 4.45866 6.62508 2.83366 10.0001 2.83366C13.3751 2.83366 14.0667 4.45866 14.0667 6.90033V7.87533C14.0001 7.87533 13.9417 7.87533 13.8751 7.87533H6.12508V7.86699Z" fill="#5B5B5B"/>
    </symbol>

    <!--Большой плюс-->
    <symbol id="icon-plus" viewBox="0 0 24 24">
        <path d="M6 12H18" stroke="#004573" stroke-width="1.5" stroke-linecap="round" stroke-linejoin="round"/>
        <path d="M12 18V6" stroke="#004573" stroke-width="1.5" stroke-linecap="round" stroke-linejoin="round"/>
    </symbol>

    <!--Стрелка назад-->
    <symbol id="icon-arrow-back" viewBox="0 0 20 20" fill="none">
        <path d="M7.97498 4.94189L2.91664 10.0002L7.97498 15.0586" stroke="#004573" stroke-width="1.5" stroke-miterlimit="10" stroke-linecap="round" stroke-linejoin="round"/>
        <path d="M17.0834 10H3.05837" stroke="#004573" stroke-width="1.5" stroke-miterlimit="10" stroke-linecap="round" stroke-linejoin="round"/>
    </symbol>

    <!--Звездочка-->
    <symbol id="icon-star" viewBox="0 0 16 16" fill="none">
        <path d="M9.15327 2.33977L10.3266 4.68643C10.4866 5.0131 10.9133 5.32643 11.2733 5.38643L13.3999 5.73977C14.7599 5.96643 15.0799 6.9531 14.0999 7.92643L12.4466 9.57977C12.1666 9.85977 12.0133 10.3998 12.0999 10.7864L12.5733 12.8331C12.9466 14.4531 12.0866 15.0798 10.6533 14.2331L8.65994 13.0531C8.29994 12.8398 7.70661 12.8398 7.33994 13.0531L5.34661 14.2331C3.91994 15.0798 3.05327 14.4464 3.42661 12.8331L3.89994 10.7864C3.98661 10.3998 3.83327 9.85977 3.55327 9.57977L1.89994 7.92643C0.926606 6.9531 1.23994 5.96643 2.59994 5.73977L4.72661 5.38643C5.07994 5.32643 5.50661 5.0131 5.66661 4.68643L6.83994 2.33977C7.47994 1.06643 8.51994 1.06643 9.15327 2.33977Z" fill="#FFCC00"/>
    </symbol>

    <!--Звездочка-->
    <symbol id="icon-approve" viewBox="0 0 12 14" fill="none">
        <path d="M9.99333 1.47833L6.32667 0.105C5.94667 -0.035 5.32667 -0.035 4.94667 0.105L1.28 1.47833C0.573333 1.745 0 2.57167 0 3.325V8.725C0 9.265 0.353333 9.97833 0.786667 10.2983L4.45333 13.0383C5.1 13.525 6.16 13.525 6.80667 13.0383L10.4733 10.2983C10.9067 9.97167 11.26 9.265 11.26 8.725V3.325C11.2667 2.57167 10.6933 1.745 9.99333 1.47833ZM7.95333 5.21167L5.08667 8.07833C4.98667 8.17833 4.86 8.225 4.73333 8.225C4.60667 8.225 4.48 8.17833 4.38 8.07833L3.31333 6.99833C3.12 6.805 3.12 6.485 3.31333 6.29167C3.50667 6.09833 3.82667 6.09833 4.02 6.29167L4.74 7.01167L7.25333 4.49833C7.44667 4.305 7.76667 4.305 7.96 4.49833C8.15333 4.69167 8.15333 5.01833 7.95333 5.21167Z" fill="#00731D"/>
    </symbol>

    <!--Инпут ИИ-->
    <symbol id="icon-ai" viewBox="0 0 30 30" fill="none">
        <path d="M12 6.62646L15.2411 15.3854L24 18.6265L15.2411 21.8676L12 30.6265L8.75891 21.8676L0 18.6265L8.75891 15.3854L12 6.62646Z" fill="#DDF1FF"/>
        <path d="M24 0L25.6205 4.37946L30 6L25.6205 7.62054L24 12L22.3795 7.62054L18 6L22.3795 4.37946L24 0Z" fill="#DDF1FF"/>
    </symbol>

    <!--whatsapp-->
    <symbol id="icon-whatsapp" viewBox="0 0 24 24" fill="none">
        <path d="M0 11.52C0 6.0894 0 3.37413 1.68706 1.68706C3.37413 0 6.0894 0 11.52 0H12.48C17.9106 0 20.6258 0 22.3129 1.68706C24 3.37413 24 6.0894 24 11.52V12.48C24 17.9106 24 20.6258 22.3129 22.3129C20.6258 24 17.9106 24 12.48 24H11.52C6.0894 24 3.37413 24 1.68706 22.3129C0 20.6258 0 17.9106 0 12.48V11.52Z" fill="url(#paint0_linear_whatsapp)"/>
        <path d="M16.7792 7.23466C15.5341 5.96777 13.8129 5.28 12.055 5.28C8.31965 5.28 5.31664 8.28439 5.35324 11.9403C5.35324 13.0987 5.68283 14.2208 6.23219 15.2343L5.28 18.6731L8.83231 17.7681C9.82109 18.3111 10.9197 18.5645 12.0184 18.5645C15.7172 18.5645 18.7202 15.5601 18.7202 11.9042C18.7202 10.1305 18.0243 8.46538 16.7792 7.23466ZM12.055 17.4424C11.0662 17.4424 10.0775 17.1891 9.23514 16.6823L9.01543 16.5737L6.89138 17.1166L7.44069 15.0534L7.29421 14.8362C5.68283 12.2662 6.45191 8.86355 9.08866 7.27083C11.7254 5.67817 15.1313 6.43833 16.7426 9.04455C18.354 11.6508 17.5849 15.0172 14.9482 16.6099C14.1058 17.1528 13.0805 17.4424 12.055 17.4424ZM15.2777 13.4245L14.8749 13.2435C14.8749 13.2435 14.289 12.9901 13.9228 12.8092C13.8861 12.8092 13.8495 12.7729 13.8129 12.7729C13.703 12.7729 13.6298 12.8092 13.5565 12.8454C13.5565 12.8454 13.5199 12.8815 13.0072 13.4607C12.9706 13.5331 12.8973 13.5693 12.8241 13.5693H12.7874C12.7509 13.5693 12.6776 13.5331 12.641 13.4969L12.4579 13.4245C12.055 13.2435 11.6888 13.0263 11.3958 12.7368C11.3226 12.6644 11.2127 12.592 11.1395 12.5196C10.8831 12.2662 10.6268 11.9766 10.4437 11.6508L10.407 11.5784C10.3705 11.5422 10.3705 11.506 10.3338 11.4337C10.3338 11.3613 10.3338 11.2889 10.3705 11.2527C10.3705 11.2527 10.5169 11.0717 10.6268 10.9631C10.7 10.8907 10.7366 10.7821 10.8099 10.7097C10.8831 10.6011 10.9198 10.4563 10.8831 10.3477C10.8465 10.1667 10.407 9.18938 10.2972 8.97221C10.2239 8.8636 10.1507 8.82743 10.0409 8.79121H9.63803C9.56474 8.79121 9.49155 8.82743 9.41826 8.82743L9.38161 8.8636C9.30838 8.89982 9.23514 8.97221 9.1619 9.00838C9.08867 9.08082 9.05202 9.15316 8.97878 9.2256C8.72242 9.55138 8.57595 9.94954 8.57595 10.3477C8.57595 10.6373 8.64919 10.9269 8.75907 11.1803L8.79571 11.2889C9.12531 11.9766 9.56473 12.592 10.1507 13.1349L10.2972 13.2797C10.407 13.3883 10.5169 13.4607 10.5902 13.5693C11.3592 14.2209 12.2381 14.6914 13.2269 14.9448C13.3368 14.981 13.4833 14.981 13.5932 15.0172H13.9594C14.1425 15.0172 14.3622 14.9448 14.5087 14.8724C14.6185 14.8 14.6918 14.8 14.765 14.7276L14.8383 14.6552C14.9115 14.5828 14.9848 14.5466 15.058 14.4743C15.1313 14.4019 15.2045 14.3295 15.2411 14.257C15.3144 14.1123 15.351 13.9313 15.3876 13.7503V13.4969C15.3876 13.4969 15.351 13.4607 15.2777 13.4245Z" fill="white"/>
        <defs>
            <linearGradient id="paint0_linear_whatsapp" x1="12" y1="0" x2="12" y2="24" gradientUnits="userSpaceOnUse">
                <stop stop-color="#42E760"/>
                <stop offset="0.765625" stop-color="#29CB4A"/>
            </linearGradient>
        </defs>
    </symbol>

    <!--чат эмоджи-->
    <symbol id="icon-chat-bubble" viewBox="0 0 32 32" fill="none">
        <path d="M16 2C8.268 2 2 7.716 2 14.75C2 18.238 3.572 21.386 6.138 23.632C5.798 25.906 4.42 27.886 4.404 27.914C4.272 28.126 4.244 28.39 4.328 28.626C4.412 28.862 4.598 29.038 4.834 29.096C5.032 29.144 10.072 30.304 14.214 27.542C14.798 27.612 15.394 27.65 16 27.65C23.732 27.65 30 21.784 30 14.75C30 7.716 23.732 2 16 2Z" fill="#D1D5DB"/>
        <circle cx="10" cy="14.5" r="1.8" fill="#6B7280"/>
        <circle cx="16" cy="14.5" r="1.8" fill="#6B7280"/>
        <circle cx="22" cy="14.5" r="1.8" fill="#6B7280"/>
    </symbol>

    <!--Телефон-->
    <symbol id="icon-phone" viewBox="0 0 24 24" fill="none">
        <path d="M6.62 10.79C8.06 13.62 10.38 15.94 13.21 17.38L15.41 15.18C15.69 14.9 16.08 14.82 16.43 14.93C17.55 15.3 18.75 15.5 20 15.5C20.55 15.5 21 15.95 21 16.5V20C21 20.55 20.55 21 20 21C10.61 21 3 13.39 3 4C3 3.45 3.45 3 4 3H7.5C8.05 3 8.5 3.45 8.5 4C8.5 5.25 8.7 6.45 9.07 7.57C9.18 7.92 9.1 8.31 8.82 8.59L6.62 10.79Z" stroke="#333333" stroke-width="2"/>
    </symbol>

    <!--Локация-->
    <symbol id="icon-location" viewBox="0 0 32 32" fill="none">
        <path d="M7 30H25V14H7V30Z" fill="#FDE68A"/>
        <path d="M16 2L2 14H30L16 2Z" fill="#DC2626"/>
        <path d="M4 14L16 4L28 14H26L16 5.5L6 14H4Z" fill="#991B1B"/>
        <rect x="18" y="17" width="6" height="6" fill="#60A5FA" stroke="#D97706" stroke-width="2"/>
        <rect x="10" y="17" width="6" height="13" fill="#78350F"/>
        <rect x="9" y="16" width="8" height="14" stroke="#92400E" stroke-width="1.5"/>
        <circle cx="14.5" cy="23.5" r="1" fill="#FCD34D"/>
        <path d="M5 28C5 26.8954 5.89543 26 7 26C8.10457 26 9 26.8954 9 28H5Z" fill="#059669"/>
        <path d="M23 28C23 26.8954 23.8954 26 25 26C26.1046 26 27 26.8954 27 28H23Z" fill="#059669"/>
        <rect x="9" y="29" width="8" height="1" fill="#9CA3AF"/>    </symbol>
</svg>



